<mxfile host="app.diagrams.net" modified="2024-08-05T12:19:07.756Z" agent="Mozilla/5.0 (Windows NT 10.0; Win64; x64) AppleWebKit/537.36 (KHTML, like Gecko) Chrome/127.0.0.0 Safari/537.36 Edg/127.0.0.0" etag="u-QTfsHc-CoXm5RzM2G8" version="24.6.2" type="github">
  <diagram name="Page-1" id="j5V1svPYfubbyJaeF9do">
    <mxGraphModel dx="2214" dy="1897" grid="1" gridSize="10" guides="1" tooltips="1" connect="1" arrows="1" fold="1" page="1" pageScale="1" pageWidth="850" pageHeight="1100" math="0" shadow="0">
      <root>
        <mxCell id="0" />
        <mxCell id="1" parent="0" />
        <mxCell id="RZE9pD2UlzJPKSMfHfjx-4" value="" style="edgeStyle=orthogonalEdgeStyle;rounded=0;orthogonalLoop=1;jettySize=auto;html=1;" edge="1" parent="1" source="RZE9pD2UlzJPKSMfHfjx-1" target="RZE9pD2UlzJPKSMfHfjx-3">
          <mxGeometry relative="1" as="geometry" />
        </mxCell>
        <mxCell id="RZE9pD2UlzJPKSMfHfjx-1" value="Index.js" style="whiteSpace=wrap;html=1;aspect=fixed;verticalAlign=middle;direction=east;perimeterSpacing=7;strokeWidth=2;rounded=1;arcSize=4;" vertex="1" parent="1">
          <mxGeometry x="-630" y="-1080" width="90" height="90" as="geometry" />
        </mxCell>
        <mxCell id="RZE9pD2UlzJPKSMfHfjx-6" value="" style="edgeStyle=orthogonalEdgeStyle;rounded=0;orthogonalLoop=1;jettySize=auto;html=1;" edge="1" parent="1" source="RZE9pD2UlzJPKSMfHfjx-3" target="RZE9pD2UlzJPKSMfHfjx-5">
          <mxGeometry relative="1" as="geometry" />
        </mxCell>
        <mxCell id="RZE9pD2UlzJPKSMfHfjx-3" value="interactionCreate" style="whiteSpace=wrap;html=1;aspect=fixed;verticalAlign=middle;direction=east;perimeterSpacing=7;strokeWidth=2;rounded=1;arcSize=4;" vertex="1" parent="1">
          <mxGeometry x="-652.5" y="-940" width="135" height="135" as="geometry" />
        </mxCell>
        <mxCell id="RZE9pD2UlzJPKSMfHfjx-8" value="" style="edgeStyle=orthogonalEdgeStyle;rounded=0;orthogonalLoop=1;jettySize=auto;html=1;" edge="1" parent="1" source="RZE9pD2UlzJPKSMfHfjx-5" target="RZE9pD2UlzJPKSMfHfjx-7">
          <mxGeometry relative="1" as="geometry" />
        </mxCell>
        <mxCell id="RZE9pD2UlzJPKSMfHfjx-5" value="commands" style="whiteSpace=wrap;html=1;aspect=fixed;verticalAlign=middle;direction=east;perimeterSpacing=7;strokeWidth=2;rounded=1;arcSize=4;" vertex="1" parent="1">
          <mxGeometry x="-437.5" y="-940" width="135" height="135" as="geometry" />
        </mxCell>
        <mxCell id="RZE9pD2UlzJPKSMfHfjx-7" value="context&lt;div&gt;fun&lt;br&gt;&lt;/div&gt;&lt;div&gt;music&lt;br&gt;&lt;/div&gt;&lt;div&gt;utility&lt;br&gt;&lt;/div&gt;" style="whiteSpace=wrap;html=1;aspect=fixed;verticalAlign=middle;direction=east;perimeterSpacing=7;strokeWidth=2;rounded=1;arcSize=4;" vertex="1" parent="1">
          <mxGeometry x="-222.5" y="-940" width="135" height="135" as="geometry" />
        </mxCell>
      </root>
    </mxGraphModel>
  </diagram>
</mxfile>
